
<svg width="400" height="400" viewBox="0 0 400 400" xmlns="http://www.w3.org/2000/svg">
  <path d="M0,50 C50,30 50,70 100,50 C150,30 150,70 200,50 C250,30 250,70 300,50 C350,30 350,70 400,50 L400,100 C350,80 350,120 300,100 C250,80 250,120 200,100 C150,80 150,120 100,100 C50,80 50,120 0,100 Z" fill="#FFFFFF"/>
  <path d="M0,150 C50,130 50,170 100,150 C150,130 150,170 200,150 C250,130 250,170 300,150 C350,130 350,170 400,150 L400,200 C350,180 350,220 300,200 C250,180 250,220 200,200 C150,180 150,220 100,200 C50,180 50,220 0,200 Z" fill="#FFFFFF"/>
  <path d="M0,250 C50,230 50,270 100,250 C150,230 150,270 200,250 C250,230 250,270 300,250 C350,230 350,270 400,250 L400,300 C350,280 350,320 300,300 C250,280 250,320 200,300 C150,280 150,320 100,300 C50,280 50,320 0,300 Z" fill="#FFFFFF"/>
  <path d="M0,350 C50,330 50,370 100,350 C150,330 150,370 200,350 C250,330 250,370 300,350 C350,330 350,370 400,350 L400,400 C350,380 350,420 300,400 C250,380 250,420 200,400 C150,380 150,420 100,400 C50,380 50,420 0,400 Z" fill="#FFFFFF"/>
</svg>
